<?xml version="1.0" encoding="UTF-8" standalone="no"?>
<svg xmlns:rdf="http://www.w3.org/1999/02/22-rdf-syntax-ns#" xmlns="http://www.w3.org/2000/svg" height="1551" viewBox="0 0 664 1551" width="664" version="1.1" xmlns:cc="http://creativecommons.org/ns#" xmlns:dc="http://purl.org/dc/elements/1.1/">
<path d="m362.43 1547-4.0433-4.0433-3.8295 3.0433c-5.0735 4.0319-8.534 3.9506-13.302-0.3124-6.9368-6.2026-11.418-7.1774-16.753-3.6443-4.5632 3.0221-8.2477 2.6284-10.297-1.1001-0.93692-1.705-2.9484-4.8613-4.4698-7.0139l-2.7664-3.9138-6.826 0.2639c-8.1714 0.3159-9.3928-0.4674-12.781-8.1961-3.125-7.1295-4.4647-8.04-11.829-8.04-7.7016 0-10.075-1.5591-10.819-7.1075-0.75732-5.6463-3.2489-7.8664-9.8304-8.7595-8.4391-1.1453-9.3449-2.2796-12.882-16.133-3.1301-12.259-4.2306-14-8.8514-14-6.79-0.1-10.16-5.8-10.16-17.1 0-7.1775-2.0753-9.9606-7.4273-9.9606-3.3051 0-4.822-4.668-5.3414-16.437l-0.50226-11.381-3.9371-1.7754c-7.7388-3.4898-8.9869-10.587-3.7927-21.566 4.4678-9.4441 3.4306-13.989-3.9518-17.318-5.1731-2.3328-5.4795-3.5772-4.7794-19.416 0.71298-16.13 0.38711-17.683-4.3976-20.963-5.3077-3.6384-5.6338-5.8134-2.2393-14.934 5.2479-14.101 3.6878-34.208-2.6542-34.208-8.5197 0-7.4157-12.3 2.4101-26.85 5.1199-7.582 4.7808-9.7096-1.887-11.839-7.0858-2.263-5.4316-12.353 3.8943-23.754 10.069-12.309 12.159-25.48 4.2784-26.958-8.9082-1.6712-8.7925-7.9783 0.37866-20.652 12.653-17.486 13.677-32.411 2.2738-33.138-9.181-0.5858-6.4585-10.268 7.2563-25.808 16.09-18.23 18.87-33.344 7.6696-41.693-8.6172-6.4232-7.573-10.585 5.9363-23.663 8.8213-8.5398 12.731-15.651 13.546-24.64l0.55394-6.109-6.1479-5.6975c-7.4072-6.8647-7.6075-8.4532-1.8894-14.988 2.3375-2.6712 5.825-7.0253 7.75-9.6756 1.925-2.6504 4.9625-6.829 6.75-9.2858 4.1319-5.679 4.0865-6.3858-0.74664-11.629-6.5388-7.0938-6.3831-9.1077 1.3563-17.541 9.5638-10.421 10.072-17.11 1.6201-21.305-10.881-5.4003-11.16-16.592-0.52975-21.293 6.7332-2.9777 8.2966-12.48 2.0533-12.48-5.3802 0-14.075 22.69-16.544 43.177-1.56 12.9-2.95 18.82-4.42 18.82-1.4986 0-2.6657-2.3752-2.0884-4.25 0.21172-0.6875 0.65341-5.2289 0.98153-10.092l0.59659-8.8421-2.5036 2.9753c-3.5493 4.2181-5.5314 13.065-3.2173 14.36 4.8936 2.7386-0.48799 11.753-7.0549 11.817-4.6648 0.0456-4.8937-5.4992-0.29321-7.103 2.5483-0.88834 2.7983-1.2845 1.8097-2.8676-0.86398-1.3835-0.85894-3.0852 0.0204-6.8948 1.98-8.5778 0.24091-10.176-4.8111-4.4225-3.0997 3.5304-3.2074 3.9364-2.6443 9.9674 0.90268 9.6666-3.3285 17.617-4.9803 9.3585l-0.59876-2.9938-2.7497 3.1493c-5.4774 6.2736-7.3805 1.95-2.214-5.0298 5.21-7.03 7.35-16.13 3.81-16.13-0.8052 0-1.7472-0.89214-2.0932-1.9825-1.0882-3.4285-5.1334 0.365-9.0314 8.4694-3.8342 7.9716-4.4368 10.557-1.9868 8.5237 2.0544-1.705 4.6465-0.55762 3.8439 1.7016-1.6778 4.7228-6.3311 7.1135-6.3311 3.2527 0-1.7022-0.31642-1.8658-1.9343-1-5.1547 2.7587-5.1646 1.2397-0.0657-10.084 4.1058-9.1184 4.7957-12.271 2.937-13.42-2.6745-1.653-7.4383 5.6365-8.9734 13.731-1.48 7.84-6.96 14-6.96 7.83 0-1.6611-0.47679-1.8796-3-1.375-4.5759 0.91518-3.8815-2.0436 1.766-7.5246 4.888-4.7438 12.282-17.411 10.944-18.748-1.3543-1.3543-8.4237 6.6871-11.593 13.187-3.177 6.5158-7.6127 10.228-10.773 9.0151-1.1372-0.43639-0.56968-1.6544 2.48-5.3224 4.185-5.0334 15.305-22.46 14.711-23.054-0.51968-0.51967-6.5761 2.6891-10.215 5.4122-1.8233 1.3643-4.7257 5.47-6.805 9.6262-3.518 7.0321-6.1474 9.6501-9.7657 9.7234-2.7474 0.0556-2.0498-2.3563 1.2443-4.3021 1.6469-0.97282 3.2932-2.9823 3.6585-4.4656 0.36529-1.4833 2.6514-5.6107 5.0803-9.172 2.5722-3.7715 3.9433-6.6328 3.2837-6.8526-1.841-0.61366-4.7132 2.6302-10.626 12-3.836 6.0795-6.1646 8.8273-7.4804 8.8273-2.8792 0-2.5497-0.72571 6.0462-13.314 6.8086-9.9705 11.139-18.924 9.8001-20.263-0.5968-0.5968-7.0272 7.4514-12.698 15.892-8.8186 13.127-14.913 18.348-15.84 13.57-0.15468-0.79673 2.6488-4.7018 6.2299-8.6779 7.46-8.28 9.55-11.82 9.55-16.2 0-1.7046 0.68656-4.427 1.5257-6.0497 1.9152-3.7036 0.64318-3.7969-2.733-0.20034-3.718 3.9606-12.837 16.254-14.079 18.979-1.309 2.8729-7.2466 6.6645-9.2392 5.8999-2.2597-0.86711-1.7561-3.14 1.0254-4.6286 1.375-0.73588 2.5-1.6099 2.5-1.9422 0-0.33236 2.949-4.1938 6.5534-8.581 9.9387-12.097 11.94-17.091 4.298-10.727-5.1033 4.2502-9.1115 9.0129-11.869 14.103-1.9604 3.6191-3.1488 4.7197-5.3718 4.9753-7.3044 0.83978-5.641-2.787 7.5622-16.488 8.56-8.88 10.2-11.34 7.57-11.34-2.4435 0-14.364 11.822-16.801 16.662-2.7133 5.3896-3.6134 6.3004-6.2485 6.3226-1.2981 0.011-1.724-0.60782-1.5-2.1794 0.23331-1.6366-0.32284-2.3542-2.1871-2.8219-1.8238-0.45757-2.4356-1.2163-2.2618-2.8053 0.147-1.37-0.318-2.18-1.253-2.18-2.112 0-1.843-2.37 0.512-4.5 2.6448-2.3935 2.5255-3.5-0.37756-3.5-3.3384 0-5.4299-2.6389-3.5365-4.4623 2.2172-2.1353 9.0338-3.6833 10.578-2.402 1.4108 1.1709 5.8437-1.9682 9.6967-6.8665l2.0331-2.5847-2.9467 0.72064c-1.6207 0.39635-4.6078 2.0423-6.638 3.6578-2.0877 1.6612-4.9115 2.9424-6.5 2.9492-1.5448 0.007-4.7671 1.1316-7.1607 2.5-4.819 2.75-7.151 3.14-7.151 1.2 0-2.17 3.023-5.72 4.879-5.72 6.3571 0 24.604-13.339 20.238-14.794-1.4802-0.49338-12.027 5.1809-18.047 9.7094-6.305 4.7428-11.432 5.6275-10.889 1.879 0.23315-1.6096 2.417-3.2994 8.0773-6.25 9.4587-4.9306 18.033-12.016 13.361-11.041-1.5848 0.33075-5.5461 2.4108-8.8027 4.6223-6.614 4.5-11.74 6.88-14.784 6.88-3.0442 0-2.5463-3.4238 0.71788-4.9363 1.5125-0.70084 4.1864-1.9587 5.942-2.7952 3.6828-1.7548 14.653-11.257 13.884-12.026-0.28382-0.28382-3.3419 1.2821-6.7958 3.4798-16.627 10.58-18.115 11.285-20.073 9.5124-3.9383-3.5641-1.8978-7.7324 3.7935-7.7494 6.0015-0.018 18.859-7.7729 28.5-17.19 3.3306-3.2531-16.397 2.4995-20.629 6.0155-1.5789 1.3117-4.1697 2.7024-5.7574 3.0904s-4.3301 1.8064-6.0944 3.1521c-3.483 2.66-6.519 3.2-6.519 1.17 0-2.6588 3.2241-5.7081 7.2862-6.8911 2.3176-0.67494 5.7888-2.1879 7.7138-3.3621 10.015-6.1089 16.005-9.5429 18.133-10.395 2.0881-0.836 1.8873-0.95533-1.7013-1.0112-3.0897-0.0481-5.6162 0.90621-10.5 3.9662-12.888 8.07-24.932 13.41-24.932 11.05 0-2.8026 2.2974-4.5279 13.335-10.015 6.6907-3.3258 13.283-6.9207 14.65-7.9887 4.0635-3.1751 1.2897-3.7389-3.9377-0.80045-2.6632 1.497-6.0313 2.7219-7.4846 2.7219-3.5215 0-9.8966 3.3376-12.362 6.4721-2.438 3.1-6.2 3.42-6.2 0.53 0-1.1293-0.66667-2-1.5314-2-0.84226 0-1.8154-0.74007-2.1625-1.6446-0.885-2.31 2.303-4.36 6.78-4.36 5.5838 0 24.216-8.4442 26.389-11.959 1.2442-2.0131-4.4185-1.025-13.997 2.4423-5.2918 1.9156-10.602 3.4507-11.8 3.4114s-3.9114 0.25972-6.0298 0.6645c-4.856 0.92784-4.9517-2.1931-0.13607-4.4336 7.7768-3.6182 24.564-16.382 23.26-17.686-0.9217-0.9217-18.839 8.6075-22.171 11.791-4.333 4.14-10.601 3.39-10.601-1.28 0-2.7116 3.6795-5.203 8.9037-6.0288 5.136-0.81 16.096-5.63 16.096-7.08 0-1.2851-1.6971-1.015-6.8146 1.0846-5.7065 2.3412-16.724 3.6332-17.688 2.0741-1.436-2.33 1.703-4 7.5-4 7.9479 0 28.552-9.3064 25.196-11.381-1.5286-0.94473-13.715 1.2812-18.428 3.3662-8.509 3.76-16.765 4.51-16.765 1.51 0-1.5394 2.2121-2.5 5.7572-2.5 1.4265 0 5.7772-1.5468 9.6682-3.4372 3.891-1.89 8.875-4.2 11.075-5.13l4-1.7-3.686-0.947c-5.662-1.4547-13.93 0.64112-18.896 4.7896-6.4443 5.384-13.081 3.503-7.4623-2.1152l2.6311-2.6311-3.0444 0.66866c-2.2911 0.50321-3.1956 0.27465-3.6554-0.92371-1.1783-3.0705 1.3862-4.2513 10.663-4.9098 9.5725-0.67948 12.313-1.5562 13.356-4.2724 0.97696-2.5459 0.13276-2.7617-6.1311-1.5672-12.497 2.38-21.276 2.49-21.276 0.27 0-2.2973 3.6832-3.2978 11-2.988 6.7587 0.28611 20.968-4.9182 18.451-6.7582-2.4521-1.793-2.5222-1.7856-15.895 1.6865-11.711 3.04-13.556 3.09-13.556 0.39 0-1.7571 2.5878-2.8313 10.224-4.2441 8.308-1.54 14.776-4.62 14.776-7.04 0-1.0851 0.5625-2.2398 1.25-2.566 4.9835-2.3648-7.0887 1.137-13.504 3.917-8.7969 3.8122-12.215 4.3367-13.107 2.0114-0.76202-1.9858 2.3663-3.9427 10.993-6.877 3.8414-1.3066 8.5331-3.1815 10.426-4.1664 1.893-0.99 6.142-2.11 9.442-2.49 5.6127-0.65202 5.3749-0.70584-3.6849-0.83384-10.486-0.14813-13.512 0.58894-18.031 4.3913-4.5638 3.8402-9.1634 2.9174-6.8649-1.3773 1.3396-2.503 9.7136-5.7797 19.477-7.6212 8.6384-1.6293 9.7861-2.17 7.5745-3.5687-3.8469-2.4328-15.434 0.26092-18.843 4.3806-1.854 2.24-7.128 2.23-7.128-0.01 0-0.91919 0.74474-2.4942 1.655-3.5 0.933-1.03 1.166-1.83 0.535-1.83-4.2743 0-3.0159-8.2973 1.5398-10.153 1.5235-0.62053 4.1201-1.7 5.7701-2.3988 1.65-0.69879 5.5875-1.5874 8.75-1.9747 5.5425-0.67874 5.75-0.81068 5.75-3.6563 0-2.3335-0.36673-2.8484-1.75-2.4571-0.9625 0.27228-4.104 0.79366-6.9811 1.1586-2.8771 0.36497-6.3779 1.5656-7.7794 2.668-3.732 2.93-5.49 1.75-5.49-3.69 0-5.4435 1.3584-6.3084 7.1721-4.5666 4.465 1.34 16.828 0.5 16.828-1.14 0-0.54474-2.3195-0.85717-5.25-0.70716-6.7811 0.34713-17.053-1.0473-17.943-2.4357-1.9688-3.0725 3.3148-4.5475 9.0845-2.5361 2.0458 0.71317 5.5969 0.84038 9.8992 0.35462l6.709-0.76-8-1.8234c-4.4-1.0029-9.1876-1.8375-10.639-1.8546-6.9021-0.0816-8.7196-6.5015-2.7192-9.6044 2.5228-1.3046 2.7994-1.7929 1.7393-3.0702-1.0178-1.2263-0.99827-1.9367 0.10117-3.6877 0.74897-1.1928 1.6379-3.5188 1.9754-5.1688 0.79631-3.8931 4.7179-4.5392 8.8789-1.4628 2.4004 1.7747 3.3031 1.9585 5.0437 1.027 3.3253-1.7796 2.5689-2.6894-3.905-4.6964-8.9789-2.7836-8.2892-5.6652 1.525-6.3718l7-0.50394-6.2803-0.56207c-7.306-0.65386-10.419-2.7794-8.5218-5.8179 0.86038-1.3777 0.86822-2.1461 0.03045-2.9838-3.1548-3.1548 5.8913-5.3281 18.522-4.4498 5.8825 0.40905 8.75 0.26087 8.75-0.45217 0-1.1784-8.3255-3.2131-13.299-3.2502-11.972-0.09-15.032-5.14-7.364-12.14 2.354-2.15 2.69-2.84 1.385-2.84-2.1777 0-2.1458-1.4736 0.14062-6.5 2.8557-6.2778 4.1477-6.9351 11.351-5.7751 8.0709 1.2998 13.354 0.15964 7.2856-1.5722-2.2-0.62785-5.2007-1.144-6.6682-1.1471-6.5211-0.0136-7.1455-1.7179-3.0818-8.4122 4.2963-7.0775 43.368 1.6491 66.25 14.797 5.4047 3.1055 6 3.1738 6 0.68919 0-1.3141-0.93253-2.1254-2.953-2.5692-4.0318-0.88552-7.7327-3.9816-9.9872-8.3548-4.9611-9.6234-13.981-14.387-26.977-14.248-13.736 0.14-21.453-11.21-13.549-19.94 9.569-10.58-1.493-38.97-15.177-38.97-11.027 0-15.848-13.25-8.732-24.01 4.363-6.59 3.893-12.67-2.005-25.99-7.76-17.52-8.409-18.41-13.86-19.04-9.865-1.14-16.472-13.97-10.866-21.09 15.111-19.22 11.543-60.26-5.634-64.82-10.085-2.67-10.189-12.88-0.228-22.3 7.818-7.39 9.298-10.19 11.921-22.53 4.541-21.37-10.854-27.87-29.627-12.52-8.228 6.73-18.245 6.21-18.308-0.96-0.01301-1.53 0.66723-1.68 5.235-1.17 6.0121 0.6678 9.7957-1.6951 15.199-9.4921 3.4713-5.0091 3.7373-4.7365-6.3373-6.4953-8.8925-1.55-11.112-2.72-11.112-5.82 0-1.6729 0.44297-1.885 2.75-1.317 6.5862 1.6218 8.233 1.5904 16.975-0.32411 23.952-5.2454 22.85-4.4589 37.994-27.12 2.7568-4.125 6.6133-9.4138 8.57-11.753 4.224-5.0494 5.2542-7.9817 6.7385-19.179 1.5634-11.795 6.2849-19.418 14.874-24.015 7.8387-4.1952 6.1023-20.807-2.7723-26.522-1.997-1.28-9.705-4.22-17.13-6.53-15.639-4.86-24-8.55-24-10.57 0-1.9596 2.1758-1.7741 11.584 0.98753 10.802 3.1709 26.07 5.3312 27.509 3.8923 2.2127-2.2127-3.9645-10.18-9.1752-11.833-2.7622-0.8767-2.3589-3.3249 0.67306-4.0859 4.2168-1.0584 10.152 1.3982 15.854 6.5617 9.7351 8.8161 17.82 8.6183 37.056-0.90667 11.767-5.8267 17.017-10.242 15.962-13.421-3.07-9.24-0.99-14.62 5.64-14.62 2.0823 0 4.0362-0.40478 4.3419-0.89952 0.30576-0.49474 2.7355-1.4224 5.3994-2.0615 3.1028-0.74435 6.9674-2.8596 10.753-5.8857 3.2503-2.598 8.3846-6.4836 11.41-8.6347 8.3159-5.9133 23.646-19.414 31.5-27.741 10.675-11.318 27.108-30.111 29.805-34.085 1.324-1.951 3.1351-4.2751 4.0247-5.1647 5.2651-5.2651 5.6283-17.876 0.76969-26.729-9.77-17.799-13.03-37.8-6.16-37.8 1.5052 0 2.2406 1.0291 3.0367 4.25 2.3519 9.5148 3.1671 11.581 7.5944 19.25 2.5402 4.4 7.5285 13.175 11.085 19.5 9.9085 17.621 12.817 18.139 9.185 1.6358-2.8765-13.07-2.4928-19.235 1.6977-27.274 7.9674-15.286 12.648-13.101 7.4513 3.4772-3.0356 9.6839-2.6438 14.927 1.8701 25.029 2.1214 4.7476 4.6598 12.007 5.6408 16.132 8.68 36.499 42.859 30.929 59.12-9.6357 4.0377-10.072 5.035-11.528 6.4082-9.3559 2.3166 3.6642 1.0646 13.617-3.0365 24.141-2.2056 5.6595-3.8691 10.713-3.6966 11.231 0.54341 1.6302 10.947-13.565 12.848-18.765 1.9082-5.2206 3.3712-6.8003 5.8591-6.3263 4.4918 0.85574-2.5986 27.451-9.5305 35.748-14.058 16.827 13.454 62.241 44.454 73.379 15.047 5.4063 21.269 6.6741 24.003 4.8909 9.5195-6.2101 18.777-22.936 21.755-39.306 0.97423-5.3551 5.4836-7.2495 6.6743-2.8038 2.1529 8.0379-0.9279 26.766-5.8523 35.577-3.0851 5.5198-3.1304 6.149-0.2533 3.5183 1.2375-1.1315 3.6-2.7479 5.25-3.5919 4.0155-2.054 9.4961-7.9367 13.928-14.949 4.1439-6.5573 5.5722-7.1806 5.5722-2.4315 0 8.6594-3.6289 15.723-16.961 33.014-7.8656 10.201-8.2174 8.6126 8.265 37.324 4.055 7.0637 9.8919 17.343 12.971 22.843 3.079 5.5 7.8951 12.7 10.702 16 4.9425 5.8097 5.0979 6.1808 4.9011 11.701-0.35755 10.03 14.292 23.653 41.84 38.907 3.97 2.1983 9.145 5.6102 11.5 7.5819 6.8297 5.7181 18.577 10.305 32.579 12.722 9.1952 1.5868 38.943 11.312 50.6 16.542 3.734 1.6753 7.6615 3.046 8.7279 3.046 7.3767 0 12.407 6.1065 11.637 14.126l-0.4607 4.7946 4.1021-0.56225c5.3548-0.73396 7.7023 1.6851 8.369 8.6242l0.4807 5.0027-8.3765 8.5999c-10.698 10.984-11.96 11.625-22.214 11.291-4.7626-0.15533-11.911 0.45683-17.162 1.4697-5.2054 1.004-13.427 1.7135-19.5 1.6828-5.775-0.0292-16.125 0.34431-23 0.83009l-12.5 0.88325-3.7049-3.3275c-6.773-6.0829-25.098-13.45-39.448-15.86-8.1176-1.363-19.112-4.8979-56.347-18.117-14.686-5.2136-19.329-5.7048-37.533-3.9708-7.0027 0.66707-9.247 0.43574-17.5-1.8038-12.38-3.3596-27.839-5.9628-35.967-6.057-9.2311-0.10695-48.98 3.1696-58.5 4.8222-4.4 0.76379-10.679 1.6696-13.953 2.013-3.2743 0.34334-9.8981 1.5618-14.72 2.7077-13.382 3.1805-16.264 1.1388-12.723-9.0166 2.1404-6.1399-5.4203-12.065-15.454-12.11-9.6662-0.0438-15.243 10.113-8.987 16.368 6.1853 6.1853 38.607 22.377 52.031 25.985 11.605 3.1189 14.625 4.4839 21.976 9.9304 7.2668 5.3846 11.832 7.7855 19.331 10.167 3.025 0.96053 7.0794 2.8085 9.0098 4.1066s10.35 4.6106 18.709 7.3611c41.256 13.574 84.08 44.034 125.17 89.034 17.011 18.628 31.187 42.549 35.573 60.027 0.89716 3.575 2.4901 9.2 3.5399 12.5 9.1513 28.767 11.93 68.194 7.0396 99.886-0.49957 3.2374-1.2266 12.572-1.6155 20.744l-0.70721 14.857 2.8477 6.2564c6.9486 15.266 0.41026 35.529-13.962 43.269-3.4559 1.8611-3.46 1.8718-1.8882 4.9265 2.9662 5.7643 11.32 17.53 16.838 23.713 8.3433 9.3505 5.1217 21.695-6.8216 26.14-0.97075 0.36126-2.1825 1.7549-2.6927 3.0969-0.91326 2.402-1.5761 2.762-7.5423 4.0962-1.65 0.36897-3.776 1.3701-4.7245 2.2248-3.4379 3.098-11.743-3.4724-11.791-9.3278-0.0733-9.0098-2.4782-4.6912-10.528 18.905-7.0124 20.556-10.089 27.393-34.066 75.699-11.05 22.28-20.45 41.63-20.87 43.01-2.8918 9.3621-26.362 56.45-32.398 65-5.0765 7.1907-11.927 20.101-44.304 83.5-16.02 31.37-22.926 45.973-25.531 53.992-1.9645 6.0459-4.8134 13.921-6.3309 17.5-17.585 41.475-24.248 78.92-25.632 144.05-1.6837 79.234 12.041 123.18 43.053 137.86 65.65 31.067 143.31-17.166 121.52-75.477-9.6279-25.769-46.851-32.099-57.417-9.7635-8.4145 17.787 4.4877 33.146 20.546 24.459 3.9641-2.1444 3.9664-2.1628 1.9303-15.377-1.7233-11.184 2.4892-15.104 13.312-12.388 35.434 8.8934 4.3618 70.218-31.532 62.232-36.763-8.1789-56.901-37.243-47.408-68.418 0.89365-2.9346 2.124-8.1096 2.734-11.5 1.1838-6.5792 6.4022-15.767 10.07-17.73 1.116-0.5972 3.6824-2.6352 5.7033-4.5287 9.2364-8.6546 16.367-14.194 18.931-14.707 1.5357-0.3071 4.5162-1.9285 6.6233-3.603 4.0177-3.1929 9.1176-4.7075 12.372-3.6744 1.0592 0.3362 3.6859-0.131 5.8369-1.0383 6.1628-2.5992 21.656-2.4353 27.411 0.2899 2.7075 1.2819 7.2884 2.3144 11.5 2.5919 8.7333 0.5753 15.478 4.2906 18.073 9.9556 2.2482 4.9079 3.8358 6.2192 10.58 8.7388 4.6423 1.7343 5.9669 2.7735 7.4092 5.8129 0.96595 2.0356 4.0471 5.9571 6.8471 8.7145s6.3401 7.2634 7.867 10.013c1.5269 2.75 3.8907 6.5311 5.253 8.4024 3.134 4.305 6.4708 15.39 6.4708 21.495 0 2.8929 0.84427 6.2908 2.2094 8.8921 1.2438 2.3702 2.4833 7.051 2.8361 10.71 0.34469 3.575 1.2334 8.5987 1.975 11.164 1.4777 5.1118 2.0193 3.8882-6.2704 14.166-1.5653 1.9408-1.6371 3.0877-0.68015 10.87l1.0698 8.6999-4.5698 4.3787c-4.2792 4.1001-4.5698 4.7094-4.5698 9.5784 0 4.9905-0.21284 5.3978-5.29 10.123-4.6967 4.3714-5.4334 5.6182-6.5694 11.118-1.5337 7.4253-5.292 11.902-9.9923 11.902-3.7951 0-5.8013 1.9974-7.1914 7.16-1.3836 5.1383-4.565 8.3427-9.8571 9.9282-3.1805 0.9529-4.2718 1.843-4.6916 3.8268-2.5283 11.948-6.0379 15.368-15.298 14.906l-6.439-0.3211-2.0857 4c-3.4982 6.7089-10.797 9.1098-18.24 6-5.492-2.2947-6.9499-1.8782-10.441 2.9824-4.0297 5.6113-5.4164 6.0388-12.835 3.9572-7.7665-2.1791-9.9698-1.5123-13.296 4.0237l-2.7254 4.5367h-17.789-17.789l-4.0433-4.0433z"/>
</svg>
